<?xml version="1.0" encoding="utf-8"?>
<!-- Generator: Adobe Illustrator 21.0.0, SVG Export Plug-In . SVG Version: 6.00 Build 0)  -->
<svg version="1.1" id="Layer_1" xmlns="http://www.w3.org/2000/svg" xmlns:xlink="http://www.w3.org/1999/xlink" x="0px" y="0px"
	 viewBox="0 0 340 486.7" style="enable-background:new 0 0 340 486.7;" xml:space="preserve">
<style type="text/css">
	.st0{fill:#F2F0CD;}
	.st1{fill:none;stroke:#606161;stroke-miterlimit:10;}
	.st2{fill:#FFFFFF;}
	.st3{fill:#606161;}
	.st4{fill:#282B66;}
	.st5{font-family:'Roboto-Black';}
	.st6{font-size:37px;}
	.st7{font-family:'Roboto-Medium';}
	.st8{font-size:13.2705px;}
	.st9{letter-spacing:1;}
</style>
<rect class="st0" width="340" height="486.7"/>
<path class="st1" d="M65.5,358.4H48.9c-9.4,0-17-7.6-17-17V82.9c0-9.4,7.6-17,17-17h242.7c9.4,0,17,7.6,17,17v258.4
	c0,9.4-7.6,17-17,17H273"/>
<g>
	<path class="st2" d="M48.9,352.4c-6.1,0-11-5-11-11V82.9c0-6.1,5-11,11-11h242.7c6.1,0,11,5,11,11v258.4c0,6.1-5,11-11,11H48.9z"/>
	<path class="st3" d="M291.6,72.9c5.5,0,10,4.5,10,10v258.4c0,5.5-4.5,10-10,10H48.9c-5.5,0-10-4.5-10-10V82.9c0-5.5,4.5-10,10-10
		H291.6 M291.6,70.9H48.9c-6.7,0-12,5.4-12,12v258.4c0,6.7,5.4,12,12,12h242.7c6.7,0,12-5.4,12-12V82.9
		C303.7,76.3,298.3,70.9,291.6,70.9L291.6,70.9z"/>
</g>
<text transform="matrix(1 0 0 1 103.4399 387.0969)"><tspan x="0" y="0" class="st4 st5 st6">Nombre</tspan><tspan x="-2.3" y="34.6" class="st4 st5 st6">Apellido</tspan></text>
<text transform="matrix(1 0 0 1 151.4237 453.1534)" class="st3 st7 st8 st9">PAÍS</text>
<image style="overflow:visible;" width="1264" height="649" xlink:href="LogoGrande.png"  transform="matrix(0.1436 0 0 0.1436 78.5 8.4611)">
</image>
<line class="st1" x1="62.8" y1="457.2" x2="277.7" y2="457.2"/>
<line class="st1" x1="62.8" y1="437.3" x2="277.7" y2="437.3"/>
</svg>
